<?xml version="1.0" encoding="UTF-8"?>
<svg xmlns="http://www.w3.org/2000/svg" width="154.765" height="45" viewBox="0 0 154.765 45">
  <g id="logo" transform="translate(-723.783 -829.883)">
    <g id="Groupe_1" data-name="Groupe 1" transform="translate(723.783 829.883)">
      <path id="Tracé_1" data-name="Tracé 1" d="M743.352,842.805a5.024,5.024,0,0,1,1.014,3.163,4.815,4.815,0,0,1-2.267,4.25,11.857,11.857,0,0,1-6.563,1.507H723.783V830.844H734.94q4.176,0,6.309,1.492a4.619,4.619,0,0,1,2.133,3.968,4.835,4.835,0,0,1-.73,2.625,5.231,5.231,0,0,1-2.163,1.879A6.276,6.276,0,0,1,743.352,842.805ZM730.7,835.766v3.1h3.282q2.3,0,2.3-1.551t-2.3-1.551Zm6.563,9.4q0-1.64-2.327-1.64H730.7V846.8h4.236Q737.267,846.8,737.267,845.162Z" transform="translate(-723.783 -830.366)" fill="#fff"></path>
      <path id="Tracé_2" data-name="Tracé 2" d="M782.1,848.086h-7.935l-1.4,3.639H765.6l9.128-20.881h6.921l9.128,20.881H783.5Zm-1.939-5.071-2.028-5.25-2.028,5.25Z" transform="translate(-744.812 -830.366)" fill="#fff"></path>
      <path id="Tracé_3" data-name="Tracé 3" d="M819.925,851.137a13.538,13.538,0,0,1-4.042-1.566l2.267-5.13a14.452,14.452,0,0,0,3.341,1.387,13.046,13.046,0,0,0,3.55.522,5.5,5.5,0,0,0,2.088-.283.911.911,0,0,0,.626-.851q0-.656-.82-.983a17.615,17.615,0,0,0-2.7-.717,30.6,30.6,0,0,1-4.027-1.088,6.859,6.859,0,0,1-2.8-1.909,5.173,5.173,0,0,1-1.193-3.594,6.187,6.187,0,0,1,1.1-3.58,7.285,7.285,0,0,1,3.3-2.535,13.682,13.682,0,0,1,5.325-.926,19.374,19.374,0,0,1,4.221.462,13.247,13.247,0,0,1,3.654,1.358l-2.118,5.1a12.961,12.961,0,0,0-5.817-1.55q-2.715,0-2.714,1.313,0,.626.805.939a16.939,16.939,0,0,0,2.655.671,27.516,27.516,0,0,1,4.027,1.029A7.02,7.02,0,0,1,833.5,841.1a5.081,5.081,0,0,1,1.208,3.579,6.124,6.124,0,0,1-1.1,3.565,7.437,7.437,0,0,1-3.3,2.537,13.51,13.51,0,0,1-5.325.939A21.845,21.845,0,0,1,819.925,851.137Z" transform="translate(-770.094 -829.883)" fill="#fff"></path>
      <path id="Tracé_4" data-name="Tracé 4" d="M875.3,846.416v5.309H857.943V830.844h16.973v5.31H864.864V838.6h8.829v5.071h-8.829v2.745Z" transform="translate(-791.243 -830.366)" fill="#fff"></path>
    </g>
    <g id="Groupe_2" data-name="Groupe 2" transform="translate(767.403 847.052)">
      <path id="Tracé_5" data-name="Tracé 5" d="M817.187,896.924a10.371,10.371,0,0,1-4.161-3.878,11.363,11.363,0,0,1,0-11.306,10.377,10.377,0,0,1,4.161-3.878,12.69,12.69,0,0,1,5.966-1.387,13.1,13.1,0,0,1,5.429,1.074,10.083,10.083,0,0,1,3.938,3.1l-4.445,3.967a5.706,5.706,0,0,0-4.564-2.446,4.662,4.662,0,0,0-3.55,1.417,6.06,6.06,0,0,0,0,7.607,4.662,4.662,0,0,0,3.55,1.416,5.7,5.7,0,0,0,4.564-2.446l4.445,3.967a10.083,10.083,0,0,1-3.938,3.1,13.1,13.1,0,0,1-5.429,1.074A12.689,12.689,0,0,1,817.187,896.924Z" transform="translate(-811.52 -870.481)" fill="#fff"></path>
      <path id="Tracé_6" data-name="Tracé 6" d="M866.788,893.067h-1.909v5.25h-7.04V877.436h10.053a12.331,12.331,0,0,1,5.041.955,7.717,7.717,0,0,1,3.46,10.828,7.163,7.163,0,0,1-2.923,2.655l4.385,6.443h-7.517Zm2.8-9.561a3.134,3.134,0,0,0-2.148-.641h-2.565v4.892h2.565a3.13,3.13,0,0,0,2.148-.641,2.633,2.633,0,0,0,0-3.609Z" transform="translate(-834.811 -870.963)" fill="#fff"></path>
      <path id="Tracé_7" data-name="Tracé 7" d="M919.9,886.461v5.31H902.538V870.89h16.973v5.31H909.459v2.446h8.83v5.071h-8.83v2.744Zm-16.078-22.044h6.414l3.938,4.772H909.7Z" transform="translate(-857.287 -864.417)" fill="#fff"></path>
      <path id="Tracé_8" data-name="Tracé 8" d="M961.562,898.317l-.06-9.516-4.534,7.636h-3.1l-4.534-7.308v9.188h-6.414V877.436H948.7l6.8,11.127,6.622-11.127h5.787l.06,20.881Z" transform="translate(-877.591 -870.963)" fill="#fff"></path>
      <path id="Tracé_9" data-name="Tracé 9" d="M1017.518,893.007v5.31h-17.361V877.436h16.973v5.31h-10.053v2.446h8.83v5.071h-8.83v2.744Z" transform="translate(-906.373 -870.963)" fill="#fff"></path>
    </g>
    <path id="Tracé_10" data-name="Tracé 10" d="M753.354,906.323c-3.647,0-5.52-2.145-6.887-3.712-1.245-1.426-1.785-1.925-2.956-1.925s-1.709.5-2.954,1.925c-1.368,1.567-3.241,3.712-6.887,3.712s-5.52-2.146-6.887-3.712c-1.245-1.426-1.784-1.925-2.954-1.925v-5.22c3.646,0,5.52,2.146,6.887,3.712,1.245,1.426,1.785,1.925,2.954,1.925s1.71-.5,2.955-1.925c1.368-1.567,3.24-3.712,6.887-3.712s5.521,2.146,6.888,3.712c1.245,1.426,1.785,1.925,2.955,1.925s1.71-.5,2.955-1.925c1.368-1.567,3.241-3.712,6.888-3.712v5.22c-1.17,0-1.71.5-2.955,1.925C758.875,904.177,757,906.323,753.354,906.323Z" transform="translate(-0.023 -32.977)" fill="#fff"></path>
    <rect id="Rectangle_2" data-name="Rectangle 2" width="65.795" height="5.22" transform="translate(812.389 830.365)" fill="#fff"></rect>
  </g>
</svg>
